# xmcd
# 
# Track frame offsets:
#     150
#     13590
#     27194
#     40477
#     55911
#     70547
#     87890
#     100790
#     113549
#     126863
#     141076
#     156125
# 
# Disc length: 2258
# 
# Revision: 0
# Processed by: cddbd v1.5.2PL0 Copyright (c) Steve Scherf et al.
# Submitted via: BonkEnc v1.0
# 
DISCID=9208d00c
DTITLE=Truck Stop - Große Freiheit
DYEAR=0
DGENRE=Country
TTITLE0=Fahr einfach los
TTITLE1=Die Rechnung bitte
TTITLE2=Durch Sachsen ohne Anhalt
TTITLE3=Eckernförde
TTITLE4=Dann mach ich's richtig
TTITLE5=Deine Sorgen möcht ich haben
TTITLE6=Highway nach Tennessee
TTITLE7=Truckertraum
TTITLE8=Kennst du einen, kennst du alle
TTITLE9=Ich bleib wie ich bin
TTITLE10=AKH!!
TTITLE11=Wenn Trucker weinen
EXTD=
EXTT0=
EXTT1=
EXTT2=
EXTT3=
EXTT4=
EXTT5=
EXTT6=
EXTT7=
EXTT8=
EXTT9=
EXTT10=
EXTT11=
PLAYORDER=
